<?xml version="1.0" encoding="UTF-8"?>
<svg xmlns="http://www.w3.org/2000/svg" width="785" height="285" viewBox="0 0 785 285" fill="none">
  <g clip-path="url(#clip0_234_35)">
    <mask id="mask0_234_35" style="mask-type:luminance" maskUnits="userSpaceOnUse" x="0" y="0" width="785" height="285">
      <path d="M785 0H0V285H785V0Z" fill="white"></path>
    </mask>
    <g mask="url(#mask0_234_35)">
      <mask id="mask1_234_35" style="mask-type:luminance" maskUnits="userSpaceOnUse" x="0" y="0" width="785" height="285">
        <path d="M785 0H0V285H785V0Z" fill="white"></path>
      </mask>
      <g mask="url(#mask1_234_35)">
        <path d="M114.453 59.3428L119.659 45.0358L117.559 44.3598C105.857 40.6253 93.6434 38.7429 81.3598 38.7808C68.9661 38.7545 56.6484 40.7157 44.8758 44.5898L42.8008 45.2778L47.9298 59.3988L49.9248 58.6798C60.0127 55.0817 70.6495 53.2657 81.3598 53.3128C91.9561 53.2651 102.479 55.0623 112.459 58.6238L114.453 59.3428Z" fill="#204677"></path>
        <path d="M64.156 96.7633L62.127 97.4792L67.674 112.579L69.655 111.874C77.1204 109.202 85.263 109.092 92.798 111.561L94.743 112.193L100.295 97.0863L98.206 96.3982C87.1244 92.7737 75.1573 92.902 64.156 96.7633Z" fill="#204677"></path>
        <path d="M111.996 103.348L109.733 101.748L103.965 117.455L105.082 118.414C108.855 121.628 111.888 125.621 113.973 130.118C116.057 134.615 117.144 139.509 117.158 144.466C117.158 163.585 101.258 179.14 81.7058 179.14C62.1528 179.14 46.2518 163.582 46.2518 144.464C46.276 139.694 47.2912 134.98 49.233 130.623C51.1747 126.266 54.0007 122.36 57.5318 119.152L58.5828 118.189L52.7608 102.342L50.4818 104.033C44.1493 108.711 38.9945 114.801 35.4263 121.82C31.8581 128.838 29.9748 136.591 29.9258 144.464C29.9258 172.419 53.1528 195.164 81.7058 195.164C110.258 195.164 133.485 172.422 133.485 144.464C133.448 136.393 131.477 128.448 127.738 121.294C124 114.141 118.602 107.987 111.996 103.348Z" fill="#204677"></path>
        <path d="M104.931 85.5491L109.812 72.1242C100.648 69.0182 91.0347 67.4412 81.3579 67.4562C71.5901 67.6157 61.9036 69.2609 52.6309 72.3352L57.5669 85.9122L59.5669 85.1932C73.5726 80.1472 88.8809 80.0322 102.96 84.8671L104.931 85.5491Z" fill="#204677"></path>
        <path d="M124.226 9.47601C121.871 9.47992 119.522 9.7093 117.21 10.161C115.572 9.19701 113.903 8.29 112.244 7.461C102.753 2.65639 92.2821 0.10335 81.6444 0C81.4444 0 80.7344 0.0749856 80.8694 0.0539856C68.2496 0.156969 55.8958 3.69268 45.1324 10.282C40.4017 9.14219 35.4911 8.95802 30.6883 9.74033C25.8855 10.5226 21.2871 12.2557 17.1626 14.8379C13.0382 17.4201 9.47062 20.7995 6.66895 24.7781C3.86729 28.7568 1.88789 33.2546 0.846762 38.008C-0.194363 42.7614 -0.276279 47.6748 0.605811 52.4603C1.4879 57.2457 3.31626 61.807 5.98374 65.8769C8.65122 69.9467 12.1042 73.4432 16.1402 76.1614C20.1763 78.8797 24.7143 80.765 29.4884 81.707L36.9174 100.515L39.1874 98.504C41.5525 96.4098 44.0675 94.4914 46.7124 92.764L48.1284 91.841L40.0044 69.728L38.3824 69.874C36.136 70.0765 33.8718 69.925 31.6724 69.425C31.5434 69.396 31.4324 69.38 31.4874 69.417L30.8874 69.179C19.7294 66.637 12.5214 57.479 12.5214 45.858C12.5721 41.7703 13.6469 37.7605 15.6476 34.1955C17.6483 30.6304 20.5109 27.624 23.9737 25.451C27.4364 23.2781 31.3888 22.0082 35.4691 21.7573C39.5494 21.5064 43.6276 22.2827 47.3304 24.015L48.4304 24.579L50.7864 23.026C53.1619 21.3437 55.6794 19.8715 58.3104 18.626C61.2685 17.3379 64.3279 16.296 67.4574 15.511C71.8475 14.2005 76.4124 13.5695 80.9934 13.64C85.7434 13.5644 90.4778 14.2022 95.0384 15.532C95.9654 15.758 96.9164 16.049 97.8894 16.345L99.2394 16.751C99.9428 16.9678 100.632 17.228 101.303 17.53C98.6853 19.6252 96.3668 22.0692 94.4124 24.794L92.3204 27.711L95.8824 28.144C99.2354 28.544 102.311 29.039 105.288 29.644L106.404 29.871L107.211 29.071C110.587 25.7065 114.885 23.418 119.56 22.4944C124.236 21.5709 129.081 22.0539 133.482 23.8823C137.884 25.7107 141.645 28.8026 144.29 32.7673C146.935 36.7321 148.346 41.3918 148.344 46.158L148.32 46.698C148.223 51.8353 146.48 56.8058 143.346 60.8779C140.213 64.95 135.855 67.9085 130.913 69.318C129.04 69.7544 127.114 69.9198 125.194 69.809L124.162 69.751C123.991 69.745 123.821 69.734 123.547 69.715L121.947 69.608L114.212 91.202L115.662 92.109C118.472 93.8697 121.141 95.8442 123.647 98.015L125.882 99.95L133.42 81.572C135.102 81.1543 136.751 80.6142 138.354 79.956C146.176 76.6951 152.626 70.8244 156.606 63.3431C160.587 55.8618 161.852 47.2323 160.186 38.9235C158.519 30.6146 154.025 23.1399 147.468 17.7716C140.911 12.4033 132.697 9.47321 124.222 9.48001L124.226 9.47601Z" fill="#204677"></path>
        <path d="M224.087 169.288C227.226 173.051 231.172 176.057 235.632 178.085C240.093 180.113 244.953 181.11 249.851 181.001C266.485 181.001 283.689 167.501 283.689 144.709C283.689 124.449 268.7 108.641 249.564 108.641C235.856 108.641 228.747 115.101 224.085 120.641L223.958 120.897H222.245V75.541H212.697V180.566H222.245V168.632H223.96L224.087 169.288ZM222.05 145.265C222.05 129.323 232.595 117.751 247.126 117.751C264.751 117.751 272.779 131.791 272.779 144.835C272.779 158.366 264.066 172.063 247.415 172.063C233.194 172.063 222.053 160.292 222.053 145.265H222.05Z" fill="#204677"></path>
        <path d="M249.856 183.126C245.128 183.212 240.432 182.337 236.052 180.555C231.672 178.773 227.699 176.12 224.374 172.758V182.691H210.574V73.416H224.374V117.116C229.374 111.799 236.796 106.516 249.567 106.516C269.895 106.516 285.817 123.292 285.817 144.708C285.817 168.756 267.534 183.126 249.856 183.126ZM226.071 168.336C229.023 171.727 232.682 174.429 236.792 176.25C240.902 178.071 245.362 178.968 249.856 178.876C265.444 178.876 281.568 166.096 281.568 144.709C281.568 125.676 267.511 110.766 249.568 110.766C237.038 110.766 230.548 116.316 225.879 121.812L225.279 123.017H220.123V77.665H214.823V178.442H220.123V166.507H225.71L226.071 168.336ZM247.418 174.188C232.003 174.188 219.93 161.483 219.93 145.265C219.93 128.091 231.368 115.626 247.13 115.626C266.215 115.626 274.909 130.767 274.909 144.835C274.908 159.422 265.465 174.188 247.418 174.188ZM247.129 119.876C233.829 119.876 224.179 130.554 224.179 145.265C224.179 159.101 234.387 169.939 247.418 169.939C262.676 169.939 270.658 157.31 270.658 144.839C270.658 132.814 263.295 119.876 247.129 119.876Z" fill="#204677"></path>
        <path d="M308.179 82.7021H298.631V92.2501H308.179V82.7021Z" fill="#204677"></path>
        <path d="M310.304 94.3742H296.504V80.5742H310.304V94.3742ZM300.758 90.1252H306.058V84.8252H300.758V90.1252Z" fill="#204677"></path>
        <path d="M308.179 113.732H298.631V180.567H308.179V113.732Z" fill="#204677"></path>
        <path d="M310.304 182.691H296.504V111.607H310.304V182.691ZM300.758 178.442H306.058V115.857H300.758V178.442Z" fill="#204677"></path>
        <path d="M345.489 181.333C359.34 181.333 368.289 173.3 368.289 160.933C368.289 150.54 362.051 143.679 348.658 139.383C336.358 135.424 333.887 131.731 333.887 127.073C333.887 122.296 337.387 118.179 345.203 118.179C350.626 118.179 355.258 123.279 356.578 128.057H367.178C365.494 120.896 360.342 109.415 344.632 109.415C330.07 109.415 323.553 118.209 323.553 127.274C323.553 137.319 329.298 143.474 342.183 147.624C355.321 151.905 357.812 155.867 357.812 161.842C357.812 168.281 353.146 172.477 345.922 172.477C335.849 172.477 332.677 166.248 331.68 161.477H321.057C323.566 173.406 332.226 181.333 345.489 181.333Z" fill="#204677"></path>
        <path d="M345.488 183.457C331.725 183.457 321.814 175.402 318.975 161.908L318.436 159.346H333.402L333.754 161.036C335.047 167.216 339.139 170.349 345.917 170.349C351.941 170.349 355.684 167.088 355.684 161.839C355.684 157.539 354.64 153.917 341.521 149.639C327.621 145.162 321.421 138.262 321.421 127.269C321.421 117.322 328.595 107.286 344.621 107.286C361.886 107.286 367.453 119.991 369.235 127.565L369.849 130.176H354.949L354.517 128.618C353.411 124.618 349.531 120.299 345.191 120.299C339.435 120.299 335.999 122.829 335.999 127.068C335.999 130.108 337.026 133.406 349.299 137.356C363.499 141.91 370.399 149.621 370.399 160.928C370.412 174.404 360.397 183.457 345.488 183.457ZM323.788 163.595C326.828 173.557 334.608 179.208 345.488 179.208C358.24 179.208 366.162 172.208 366.162 160.93C366.162 151.452 360.562 145.43 348.007 141.404C336.315 137.64 331.761 133.621 331.761 127.07C331.761 121.987 335.282 116.051 345.202 116.051C351.032 116.051 356.055 120.841 358.095 125.929H364.378C362.064 118.853 356.742 111.537 344.629 111.537C330.638 111.537 325.675 120.013 325.675 127.271C325.675 136.243 330.806 141.724 342.83 145.599C355.46 149.714 359.93 153.964 359.93 161.839C359.93 169.471 354.297 174.598 345.914 174.598C337.727 174.598 332.143 170.709 330.019 163.598L323.788 163.595Z" fill="#204677"></path>
        <path d="M409.437 179.676C413.497 179.676 417.977 179.244 420.364 178.359V169.898C417.379 170.578 414.326 170.92 411.264 170.917C403.119 170.917 398.882 166.956 398.882 156.303V120.893H420.364V113.732H398.882V89.8623H389.334V113.732H379.787V120.893H389.335V155.873C389.334 167.643 392.376 179.676 409.437 179.676Z" fill="#204677"></path>
        <path d="M409.439 181.8C387.211 181.8 387.211 162.286 387.211 155.873V123.017H377.662V111.607H387.211V87.7383H401.011V111.607H422.488V123.017H401.007V156.303C401.007 166.668 405.107 168.792 411.265 168.792C414.134 168.794 416.994 168.479 419.793 167.852L422.493 167.098V179.836L421.107 180.35C418.226 181.419 413.188 181.8 409.439 181.8ZM381.911 118.768H391.46V155.873C391.46 170.865 397.004 177.551 409.439 177.551C412.392 177.585 415.34 177.32 418.239 176.761V172.501C415.93 172.846 413.599 173.027 411.263 173.041C401.5 173.041 396.755 167.566 396.755 156.303V118.768H418.239V115.857H396.757V91.9873H391.457V115.857H381.908L381.911 118.768Z" fill="#204677"></path>
        <path d="M464.121 118.037C466.115 118.042 468.104 118.236 470.061 118.617L470.491 118.674V109.067C470.491 108.817 466.941 108.704 464.803 108.704C455.696 108.704 448.849 115.89 446.79 120.012L446.484 120.893H446.622V113.732H434.688V180.566H446.622V142.828C446.621 127.073 452.648 118.037 464.121 118.037Z" fill="#204677"></path>
        <path d="M448.745 182.691H432.561V111.607H448.745V113.848C452.428 110.085 458.062 106.58 464.805 106.58C470.167 106.58 472.615 106.58 472.615 109.067V121.1L469.781 120.723C467.916 120.358 466.021 120.17 464.12 120.162C451.414 120.162 448.745 132.488 448.745 142.828V182.691ZM436.811 178.442H444.496V142.828C444.496 125.728 451.648 115.913 464.12 115.913C465.54 115.912 466.959 116.006 468.366 116.194V110.915C467.411 110.865 466.118 110.829 464.805 110.829C456.549 110.829 450.484 117.498 448.752 120.845L448.745 120.893V123.017H443.637L444.496 120.146V115.857H436.811V178.442Z" fill="#204677"></path>
        <path d="M581.712 180.566C595.563 180.566 604.512 172.534 604.512 160.166C604.512 149.773 598.274 142.912 584.879 138.616C572.579 134.656 570.106 130.964 570.106 126.306C570.106 121.529 573.606 117.412 581.425 117.412C586.846 117.412 591.478 122.512 592.799 127.289H603.399C601.715 120.128 596.563 108.648 580.853 108.648C566.291 108.648 559.774 117.441 559.774 126.506C559.774 136.552 565.519 142.706 578.402 146.857C591.544 151.138 594.035 155.099 594.035 161.075C594.035 167.514 589.367 171.709 582.143 171.709C572.07 171.709 568.898 165.48 567.901 160.709H557.279C559.787 172.639 568.448 180.566 581.712 180.566Z" fill="#204677"></path>
        <path d="M581.711 182.691C567.946 182.691 558.036 174.635 555.2 161.142L554.66 158.58H569.627L569.979 160.271C571.27 166.45 575.362 169.583 582.142 169.583C588.166 169.583 591.909 166.322 591.909 161.073C591.909 156.773 590.865 153.15 577.744 148.873C563.844 144.396 557.644 137.496 557.644 126.502C557.644 116.556 564.819 106.519 580.844 106.519C598.113 106.519 603.678 119.225 605.458 126.799L606.072 129.41H591.187L590.755 127.851C589.649 123.851 585.769 119.532 581.43 119.532C575.673 119.532 572.237 122.063 572.237 126.302C572.237 129.341 573.264 132.639 585.537 136.59C599.737 141.144 606.642 148.855 606.642 160.161C606.638 173.638 596.621 182.691 581.711 182.691ZM560.011 162.829C563.05 172.792 570.829 178.442 581.711 178.442C594.465 178.442 602.389 171.442 602.389 160.163C602.389 150.686 596.789 144.663 584.232 140.638C572.538 136.873 567.983 132.854 567.983 126.304C567.983 121.221 571.504 115.285 581.426 115.285C587.255 115.285 592.278 120.075 594.318 125.163H600.6C598.289 118.087 592.969 110.771 580.852 110.771C566.861 110.771 561.898 119.246 561.898 126.504C561.898 135.477 567.029 140.958 579.053 144.833C591.685 148.947 596.153 153.196 596.153 161.073C596.153 168.704 590.52 173.832 582.137 173.832C573.948 173.832 568.364 169.942 566.237 162.832L560.011 162.829Z" fill="#204677"></path>
        <path d="M652.838 107.938C632.158 107.938 616.564 123.471 616.564 144.069C616.564 164.831 632.158 180.487 652.838 180.487C657.626 180.53 662.374 179.615 666.803 177.798C671.233 175.981 675.255 173.298 678.634 169.906C682.012 166.514 684.68 162.481 686.479 158.045C688.279 153.608 689.174 148.857 689.113 144.069C689.113 123.134 673.856 107.938 652.838 107.938ZM652.838 171.011C638.614 171.011 627.474 159.176 627.474 144.069C627.474 128.541 638.141 117.269 652.838 117.269C667.535 117.269 678.203 128.539 678.203 144.069C678.203 159.429 667.298 171.011 652.838 171.011Z" fill="#204677"></path>
        <path d="M652.839 182.612C630.947 182.612 614.439 166.042 614.439 144.069C614.439 122.26 630.947 105.813 652.839 105.813C675.088 105.813 691.239 121.902 691.239 144.069C691.304 149.137 690.356 154.166 688.45 158.862C686.545 163.558 683.721 167.826 680.145 171.416C676.568 175.006 672.31 177.846 667.621 179.768C662.933 181.691 657.907 182.658 652.839 182.612ZM652.839 110.063C633.37 110.063 618.688 124.682 618.688 144.069C618.688 163.619 633.37 178.363 652.839 178.363C657.347 178.403 661.817 177.541 665.988 175.83C670.158 174.119 673.945 171.592 677.125 168.397C680.306 165.203 682.817 161.406 684.511 157.228C686.204 153.051 687.047 148.577 686.988 144.069C686.988 124.364 672.625 110.063 652.839 110.063ZM652.839 173.135C637.424 173.135 625.349 160.368 625.349 144.069C625.349 127.31 636.91 115.147 652.839 115.147C668.768 115.147 680.327 127.31 680.327 144.069C680.327 160.64 668.51 173.135 652.839 173.135ZM652.839 119.396C639.373 119.396 629.598 129.772 629.598 144.069C629.598 157.985 639.806 168.886 652.839 168.886C666.087 168.886 676.077 158.217 676.077 144.069C676.077 129.772 666.305 119.396 652.839 119.396Z" fill="#204677"></path>
        <path d="M773.965 170.151C765.82 170.151 761.583 166.19 761.583 155.537V120.126H780.683V112.966H761.583V89.0958H752.035V112.966H718.618V96.1908C718.618 88.1788 721.778 83.5848 728.97 83.5848C731.131 83.5324 733.284 83.8676 735.326 84.5748V76.0158C732.81 75.3188 730.21 74.9662 727.598 74.9678C713.912 74.9678 706.683 82.9678 706.683 97.4808V112.966H697.135V120.126H706.683V179.8H718.618V120.126H752.035V155.107C752.035 166.877 755.077 178.907 772.135 178.907C776.195 178.907 778.29 178.476 783.064 177.59V169.13C778.288 169.799 776.558 170.151 773.965 170.151Z" fill="#204677"></path>
        <path d="M720.742 181.925H704.558V122.251H695.012V110.841H704.558V97.4818C704.558 81.5938 712.739 72.8447 727.598 72.8447C730.406 72.8414 733.201 73.2209 735.906 73.9727L737.451 74.4107V87.4107L734.727 86.6107C732.88 85.9612 730.929 85.6562 728.971 85.7108C725.141 85.7108 720.742 86.9028 720.742 96.1928V110.843H749.911V86.9727H763.711V110.843H782.811V122.253H763.711V155.539C763.711 165.904 767.811 168.028 773.967 168.028C776.036 167.981 778.098 167.773 780.134 167.408L785.192 166.691V179.361L782.727 179.819C779.252 180.605 775.702 181.014 772.139 181.036C749.913 181.036 749.913 161.522 749.913 155.109V122.251H720.742V181.925ZM708.808 177.675H716.489V118.002H754.156V155.107C754.156 170.099 759.7 176.785 772.133 176.785C775.093 176.779 778.043 176.458 780.933 175.826V171.582L780.733 171.61C778.495 172.008 776.229 172.23 773.956 172.274C764.196 172.274 759.451 166.799 759.451 155.536V118.002H778.551V115.09H759.451V91.2207H754.151V115.09H716.489V96.1897C716.489 83.3727 724.307 81.4588 728.967 81.4588C730.386 81.429 731.805 81.5497 733.198 81.8187V77.6817C731.357 77.2929 729.48 77.0969 727.598 77.0968C715.13 77.0968 708.808 83.9568 708.808 97.4848V115.094H699.261V118.006H708.808V177.675Z" fill="#204677"></path>
        <path d="M511.014 108.704C490.334 108.704 474.74 124.237 474.74 144.835C474.74 165.597 490.334 181.253 511.014 181.253C515.802 181.295 520.549 180.381 524.979 178.564C529.408 176.747 533.43 174.063 536.809 170.671C540.188 167.279 542.855 163.247 544.654 158.81C546.454 154.374 547.349 149.622 547.288 144.835C547.288 123.9 532.032 108.704 511.014 108.704ZM511.014 171.777C496.791 171.777 485.65 159.943 485.65 144.835C485.65 129.308 496.317 118.035 511.014 118.035C525.711 118.035 536.379 129.306 536.379 144.835C536.379 160.195 525.474 171.782 511.014 171.782V171.777Z" fill="#204677"></path>
        <path d="M511.015 183.382C489.123 183.382 472.615 166.812 472.615 144.839C472.615 123.03 489.123 106.584 511.015 106.584C533.264 106.584 549.415 122.673 549.415 144.839C549.48 149.906 548.531 154.935 546.626 159.631C544.721 164.327 541.897 168.595 538.32 172.185C534.744 175.775 530.486 178.615 525.797 180.538C521.108 182.46 516.083 183.427 511.015 183.382ZM511.015 110.833C491.546 110.833 476.864 125.453 476.864 144.839C476.864 164.39 491.546 179.133 511.015 179.133C515.523 179.172 519.993 178.311 524.163 176.599C528.334 174.888 532.12 172.361 535.301 169.167C538.481 165.972 540.992 162.175 542.686 157.998C544.379 153.82 545.222 149.346 545.163 144.839C545.163 125.131 530.801 110.829 511.015 110.829V110.833ZM511.015 173.906C495.6 173.906 483.525 161.138 483.525 144.839C483.525 128.081 495.086 115.917 511.015 115.917C526.944 115.917 538.503 128.081 538.503 144.839C538.503 161.406 526.688 173.902 511.015 173.902V173.906ZM511.015 120.166C497.549 120.166 487.774 130.543 487.774 144.839C487.774 158.755 497.982 169.656 511.015 169.656C524.263 169.656 534.253 158.987 534.253 144.839C534.253 130.539 524.481 120.162 511.015 120.162V120.166Z" fill="#204677"></path>
      </g>
    </g>
  </g>
  <defs>
    <clipPath id="clip0_234_35">
      <rect width="785" height="285" fill="white"></rect>
    </clipPath>
  </defs>
</svg>
